<mxfile host="app.diagrams.net" modified="2023-03-05T22:44:29.628Z" agent="5.0 (Windows NT 10.0; Win64; x64) AppleWebKit/537.36 (KHTML, like Gecko) Chrome/110.0.0.0 Safari/537.36" etag="8ZQCQev-xsrHhQDfWMGK" version="21.0.2" type="github">
  <diagram name="Page-1" id="UziMlyZWSfGexvU-PLsP">
    <mxGraphModel dx="880" dy="395" grid="1" gridSize="10" guides="1" tooltips="1" connect="1" arrows="1" fold="1" page="1" pageScale="1" pageWidth="827" pageHeight="1169" math="0" shadow="0">
      <root>
        <mxCell id="0" />
        <mxCell id="1" parent="0" />
        <mxCell id="RCueIL9q0Xd-Hmp27-8k-1" value="" style="rounded=0;whiteSpace=wrap;html=1;" vertex="1" parent="1">
          <mxGeometry x="100" y="360" width="620" height="390" as="geometry" />
        </mxCell>
        <mxCell id="RCueIL9q0Xd-Hmp27-8k-2" value="" style="rounded=0;whiteSpace=wrap;html=1;" vertex="1" parent="1">
          <mxGeometry x="200" y="380" width="470" height="350" as="geometry" />
        </mxCell>
        <mxCell id="RCueIL9q0Xd-Hmp27-8k-9" style="rounded=0;orthogonalLoop=1;jettySize=auto;html=1;exitX=1;exitY=0.3333333333333333;exitDx=0;exitDy=0;exitPerimeter=0;" edge="1" parent="1" source="RCueIL9q0Xd-Hmp27-8k-3" target="RCueIL9q0Xd-Hmp27-8k-4">
          <mxGeometry relative="1" as="geometry" />
        </mxCell>
        <mxCell id="RCueIL9q0Xd-Hmp27-8k-3" value="Client" style="shape=umlActor;verticalLabelPosition=bottom;verticalAlign=top;html=1;outlineConnect=0;" vertex="1" parent="1">
          <mxGeometry x="140" y="530" width="30" height="60" as="geometry" />
        </mxCell>
        <mxCell id="RCueIL9q0Xd-Hmp27-8k-7" style="rounded=0;orthogonalLoop=1;jettySize=auto;html=1;exitX=1;exitY=0;exitDx=0;exitDy=0;entryX=-0.017;entryY=0.613;entryDx=0;entryDy=0;entryPerimeter=0;dashed=1;endArrow=open;endFill=0;" edge="1" parent="1" source="RCueIL9q0Xd-Hmp27-8k-4" target="RCueIL9q0Xd-Hmp27-8k-6">
          <mxGeometry relative="1" as="geometry" />
        </mxCell>
        <mxCell id="RCueIL9q0Xd-Hmp27-8k-8" value="&amp;lt;&amp;lt;include&amp;gt;&amp;gt;" style="edgeLabel;html=1;align=center;verticalAlign=middle;resizable=0;points=[];" vertex="1" connectable="0" parent="RCueIL9q0Xd-Hmp27-8k-7">
          <mxGeometry x="0.2037" relative="1" as="geometry">
            <mxPoint as="offset" />
          </mxGeometry>
        </mxCell>
        <mxCell id="RCueIL9q0Xd-Hmp27-8k-4" value="Consulter historique" style="ellipse;whiteSpace=wrap;html=1;" vertex="1" parent="1">
          <mxGeometry x="250" y="520" width="120" height="80" as="geometry" />
        </mxCell>
        <mxCell id="RCueIL9q0Xd-Hmp27-8k-11" style="rounded=0;orthogonalLoop=1;jettySize=auto;html=1;exitX=0;exitY=0;exitDx=0;exitDy=0;entryX=0.942;entryY=0.75;entryDx=0;entryDy=0;entryPerimeter=0;dashed=1;endArrow=open;endFill=0;" edge="1" parent="1" source="RCueIL9q0Xd-Hmp27-8k-5" target="RCueIL9q0Xd-Hmp27-8k-4">
          <mxGeometry relative="1" as="geometry" />
        </mxCell>
        <mxCell id="RCueIL9q0Xd-Hmp27-8k-12" value="&amp;lt;&amp;lt;extends&amp;gt;&amp;gt;" style="edgeLabel;html=1;align=center;verticalAlign=middle;resizable=0;points=[];" vertex="1" connectable="0" parent="RCueIL9q0Xd-Hmp27-8k-11">
          <mxGeometry x="-0.2035" relative="1" as="geometry">
            <mxPoint as="offset" />
          </mxGeometry>
        </mxCell>
        <mxCell id="RCueIL9q0Xd-Hmp27-8k-5" value="Voir en details l&#39;historique" style="ellipse;whiteSpace=wrap;html=1;" vertex="1" parent="1">
          <mxGeometry x="490" y="610" width="120" height="80" as="geometry" />
        </mxCell>
        <mxCell id="RCueIL9q0Xd-Hmp27-8k-6" value="S&#39;authentifier" style="ellipse;whiteSpace=wrap;html=1;" vertex="1" parent="1">
          <mxGeometry x="490" y="420" width="120" height="80" as="geometry" />
        </mxCell>
      </root>
    </mxGraphModel>
  </diagram>
</mxfile>
